<svg width="35" height="33" viewBox="0 0 35 33" fill="none" xmlns="http://www.w3.org/2000/svg">
<path d="M16.3658 0.974467C16.7547 0.189988 17.8782 0.189989 18.267 0.974469L22.6776 9.87259C22.832 10.1841 23.1305 10.4 23.4758 10.45L33.3381 11.8769C34.2075 12.0027 34.5547 13.0665 33.9256 13.6772L26.7891 20.6034C26.5393 20.8459 26.4253 21.1952 26.4843 21.5376L28.1689 31.3176C28.3175 32.1798 27.4085 32.8374 26.6308 32.4303L17.8097 27.8128C17.5009 27.6511 17.132 27.6511 16.8232 27.8128L8.00204 32.4303C7.22435 32.8374 6.31542 32.1798 6.46395 31.3176L8.14863 21.5376C8.20761 21.1952 8.0936 20.8459 7.84376 20.6034L0.707331 13.6772C0.0781671 13.0665 0.425349 12.0027 1.29483 11.8769L11.1571 10.45C11.5024 10.4 11.8009 10.1841 11.9553 9.87259L16.3658 0.974467Z" fill="#E0E0E0"/>
</svg>
