<svg width="18" height="16" viewBox="0 0 18 16" fill="none" xmlns="http://www.w3.org/2000/svg">
<path d="M16.6272 7.57654L14.3527 9.76857C14.0404 10.0691 13.8283 10.6701 13.8931 11.1003L14.2466 13.6694C14.4764 15.3135 13.457 16.0265 11.9839 15.2604L9.48545 13.9523C9.06708 13.7343 8.38354 13.7461 7.97696 13.9876L5.79082 15.2663C4.0643 16.274 3.0331 15.5138 3.49272 13.5693L4.13501 10.8528C4.25286 10.3578 4.03484 9.68019 3.66361 9.34431L1.59532 7.47637C0.116288 6.13876 0.528767 4.92489 2.52045 4.77169L5.04247 4.58312C5.51387 4.54777 6.08545 4.17654 6.30347 3.75817L7.61162 1.24794C8.38354 -0.219309 9.62687 -0.213416 10.3752 1.26562L11.542 3.5755C11.7423 3.96441 12.2491 4.34153 12.6792 4.40635L15.8023 4.91311C17.4875 5.19595 17.8588 6.39214 16.6272 7.57654Z" fill="#FFD600"/>
</svg>
